<svg width="396" height="101" viewBox="0 0 396 101" fill="none" xmlns="http://www.w3.org/2000/svg">
<path d="M87.8532 51.8046C87.8532 44.5497 85.0524 37.7318 79.8885 32.5748C74.7246 27.4177 67.8102 24.6206 60.4582 24.6206C53.1062 24.6206 46.3669 27.5051 41.203 32.5748C36.039 37.7318 33.2383 44.5497 33.2383 51.8046C33.2383 59.0595 36.039 66.0521 41.203 71.1218C46.3669 76.2789 53.1937 79.076 60.4582 79.076C64.9219 79.076 69.3857 78.0271 73.1492 76.0167C76.4751 74.2685 79.4509 71.8211 81.814 68.8492L72.5365 62.1188H72.449C71.1361 63.5173 69.5607 64.8284 67.8102 65.7899C65.5346 66.9262 62.9964 67.5381 60.4582 67.5381C53.9815 67.5381 48.2049 63.5173 45.8417 57.4861H87.8532V51.7172V51.8046ZM45.8417 46.0356C48.2049 40.0919 53.9815 36.0711 60.4582 36.0711C66.935 36.0711 72.7991 40.0919 75.1622 46.0356H45.8417Z" fill="white"/>
<path d="M215.287 79.1634H226.84V11.859C226.84 5.47819 221.676 0.321106 215.287 0.321106V79.1634Z" fill="white"/>
<path d="M0.416016 0.321106V79.1634H30.9619V67.6255H11.9692V11.859C11.9692 5.47819 6.80526 0.321106 0.416016 0.321106Z" fill="white"/>
<path d="M120.324 24.5331C113.06 24.5331 106.233 27.4176 101.069 32.4873C95.9053 37.6444 93.1045 44.4622 93.1045 51.7171C93.1045 58.972 95.9928 65.9647 101.069 71.0343C106.233 76.1914 113.06 78.9885 120.324 78.9885C126.013 78.9885 131.44 77.2403 136.079 74.0062C135.466 82.2226 128.639 88.6034 120.324 88.6034C117.874 88.6034 115.336 87.9915 113.147 86.8552C110.959 85.7189 109.121 84.0582 107.546 82.0478L106.671 80.9989L97.3932 87.8167L98.1809 88.953C100.632 92.362 103.957 95.159 107.633 97.1694C111.485 99.1798 115.861 100.229 120.237 100.229C127.589 100.229 134.503 97.4316 139.58 92.2746C144.656 87.1175 147.544 80.2122 147.544 72.8699V24.5331H120.149H120.324ZM136.166 51.8919C136.166 60.5454 129.077 67.6254 120.324 67.6254C111.572 67.6254 104.57 60.5454 104.57 51.8045C104.57 43.0637 111.66 36.071 120.324 36.071H136.166V51.8919Z" fill="white"/>
<path d="M208.897 24.5331V47.4341H197.256V36.071H184.478V24.5331H208.897Z" fill="white"/>
<path d="M208.899 53.2031V79.076H197.346V74.0063C192.707 77.2404 187.193 79.076 181.504 79.076C174.24 79.076 167.413 76.1915 162.249 71.1218C157.085 65.9647 154.284 59.0595 154.284 51.8046C154.284 44.5497 157.172 37.7318 162.249 32.5748C166.713 28.1169 172.489 25.4073 178.616 24.708V36.4207C171.351 37.7318 165.75 44.2001 165.75 51.892C165.75 60.6328 172.839 67.7129 181.504 67.7129C190.169 67.7129 196.471 61.4195 197.258 53.3779H208.899V53.2031Z" fill="white"/>
<path d="M233.317 79.1632H263.863V73.3943C253.185 72.258 242.945 69.7232 233.317 65.9646V79.1632Z" fill="#DF0D7B"/>
<path d="M270.252 73.8314V79.0759H281.805V73.8314C279.88 73.9188 277.954 74.0062 276.029 74.0062C274.103 74.0062 272.177 74.0062 270.252 73.8314Z" fill="#DF0D7B"/>
<path d="M288.282 79.1633H299.835V71.6462C296.072 72.4329 292.221 73.0447 288.282 73.3943V79.1633Z" fill="#DF0D7B"/>
<path d="M322.593 79.1633H334.146V58.6223C330.382 60.7201 326.531 62.7305 322.593 64.3913V79.1633Z" fill="#DF0D7B"/>
<path d="M359.615 47.3467L386.835 24.5331H371.693C363.291 36.4207 352.788 46.56 340.622 54.6016V79.1633H352.175V56.1749L377.907 79.1633H395.237L359.615 47.3467Z" fill="#DF0D7B"/>
<path d="M244.871 67.538V61.9439C242.07 62.2061 239.269 62.3809 236.468 62.3809C235.418 62.3809 234.368 62.3809 233.317 62.3809V65.9647C242.945 69.7232 253.185 72.2581 263.863 73.3944V67.6254H244.871V67.538Z" fill="#652C8E"/>
<path d="M270.252 55.1262V73.8316C272.177 73.919 274.103 74.0064 276.029 74.0064C277.954 74.0064 279.88 74.0064 281.805 73.8316V48.7454C278.129 51.1929 274.278 53.2907 270.252 55.1262Z" fill="#652C8E"/>
<path d="M327.491 31.2636C323.115 26.8932 317.339 24.5331 311.212 24.5331C309.199 24.5331 307.186 24.7954 305.26 25.3198C300.622 32.3999 294.845 38.6933 288.368 44.0252V73.3944C292.307 72.9573 296.158 72.4329 299.921 71.6462V47.4341C299.921 41.2281 304.998 36.071 311.299 36.071C317.601 36.071 322.765 41.1407 322.765 47.4341V64.3913C326.704 62.6431 330.642 60.7202 334.318 58.6224V47.4341C334.318 41.3155 331.955 35.634 327.579 31.2636H327.491Z" fill="#652C8E"/>
<path d="M371.692 24.5332H368.892L352.262 38.5185V11.859C352.262 5.47819 347.098 0.321106 340.709 0.321106V54.6016C352.875 46.5601 363.378 36.3333 371.78 24.5332H371.692Z" fill="#652C8E"/>
<path d="M233.317 0.321106V62.381C234.368 62.381 235.418 62.381 236.468 62.381C239.357 62.381 242.157 62.2062 244.871 61.9439V11.859C244.871 5.47819 239.707 0.321106 233.317 0.321106Z" fill="#0D85C8"/>
<path d="M276.029 17.5405C279.705 17.5405 282.681 14.5686 282.681 10.8974C282.681 7.22628 279.705 4.25439 276.029 4.25439C272.353 4.25439 269.377 7.22628 269.377 10.8974C269.377 14.5686 272.353 17.5405 276.029 17.5405Z" fill="#0D85C8"/>
<path d="M270.252 24.5331V55.126C274.278 53.2905 278.129 51.1927 281.805 48.7452V24.5331H270.252Z" fill="#0D85C8"/>
<path d="M299.835 24.5331H288.282V44.0252C294.847 38.6933 300.536 32.3999 305.174 25.3198C303.336 25.8443 301.498 26.5435 299.835 27.505V24.5331Z" fill="#0D85C8"/>
</svg>
