<svg width="396" height="101" viewBox="0 0 396 101" fill="none" xmlns="http://www.w3.org/2000/svg">
<path d="M88.3776 51.8046C88.3776 44.5497 85.5768 37.7318 80.4129 32.5748C75.249 27.4177 68.3346 24.6206 60.9826 24.6206C53.6306 24.6206 46.8913 27.5051 41.7274 32.5748C36.5635 37.7318 33.7627 44.5497 33.7627 51.8046C33.7627 59.0595 36.5635 66.0521 41.7274 71.1218C46.8913 76.2789 53.7181 79.076 60.9826 79.076C65.4464 79.076 69.9101 78.0271 73.6736 76.0167C76.9995 74.2685 79.9753 71.8211 82.3385 68.8492L73.0609 62.1188H72.9734C71.6605 63.5173 70.0851 64.8284 68.3346 65.7899C66.059 66.9262 63.5208 67.5381 60.9826 67.5381C54.5059 67.5381 48.7293 63.5173 46.3661 57.4861H88.3776V51.7172V51.8046ZM46.3661 46.0356C48.7293 40.0919 54.5059 36.0711 60.9826 36.0711C67.4594 36.0711 73.3235 40.0919 75.6866 46.0356H46.3661Z" fill="black"/>
<path d="M215.812 79.1634H227.365V11.859C227.365 5.47819 222.201 0.321106 215.812 0.321106V79.1634Z" fill="black"/>
<path d="M0.94043 0.321106V79.1634H31.4863V67.6255H12.4936V11.859C12.4936 5.47819 7.32967 0.321106 0.94043 0.321106Z" fill="black"/>
<path d="M120.849 24.5331C113.584 24.5331 106.757 27.4176 101.594 32.4873C96.4297 37.6444 93.6289 44.4622 93.6289 51.7171C93.6289 58.972 96.5172 65.9647 101.594 71.0343C106.757 76.1914 113.584 78.9885 120.849 78.9885C126.538 78.9885 131.964 77.2403 136.603 74.0062C135.99 82.2226 129.164 88.6034 120.849 88.6034C118.398 88.6034 115.86 87.9915 113.672 86.8552C111.484 85.7189 109.646 84.0582 108.07 82.0478L107.195 80.9989L97.9176 87.8167L98.7053 88.953C101.156 92.362 104.482 95.159 108.158 97.1694C112.009 99.1798 116.385 100.229 120.761 100.229C128.113 100.229 135.028 97.4316 140.104 92.2746C145.18 87.1175 148.069 80.2122 148.069 72.8699V24.5331H120.674H120.849ZM136.691 51.8919C136.691 60.5454 129.601 67.6254 120.849 67.6254C112.096 67.6254 105.095 60.5454 105.095 51.8045C105.095 43.0637 112.184 36.071 120.849 36.071H136.691V51.8919Z" fill="black"/>
<path d="M209.421 24.5331V47.4341H197.78V36.071H185.002V24.5331H209.421Z" fill="black"/>
<path d="M209.424 53.2031V79.076H197.87V74.0063C193.232 77.2404 187.718 79.076 182.029 79.076C174.764 79.076 167.937 76.1915 162.773 71.1218C157.609 65.9647 154.809 59.0595 154.809 51.8046C154.809 44.5497 157.697 37.7318 162.773 32.5748C167.237 28.1169 173.014 25.4073 179.14 24.708V36.4207C171.876 37.7318 166.274 44.2001 166.274 51.892C166.274 60.6328 173.364 67.7129 182.029 67.7129C190.693 67.7129 196.995 61.4195 197.783 53.3779H209.424V53.2031Z" fill="black"/>
<path d="M233.842 79.1632H264.388V73.3943C253.71 72.258 243.469 69.7232 233.842 65.9646V79.1632Z" fill="#DF0D7B"/>
<path d="M270.776 73.8314V79.0759H282.33V73.8314C280.404 73.9188 278.478 74.0062 276.553 74.0062C274.627 74.0062 272.702 74.0062 270.776 73.8314Z" fill="#DF0D7B"/>
<path d="M288.807 79.1633H300.36V71.6462C296.596 72.4329 292.745 73.0447 288.807 73.3943V79.1633Z" fill="#DF0D7B"/>
<path d="M323.117 79.1633H334.67V58.6223C330.907 60.7201 327.056 62.7305 323.117 64.3913V79.1633Z" fill="#DF0D7B"/>
<path d="M360.139 47.3467L387.359 24.5331H372.217C363.815 36.4207 353.312 46.56 341.146 54.6016V79.1633H352.7V56.1749L378.432 79.1633H395.761L360.139 47.3467Z" fill="#DF0D7B"/>
<path d="M245.395 67.538V61.9439C242.594 62.2061 239.793 62.3809 236.993 62.3809C235.942 62.3809 234.892 62.3809 233.842 62.3809V65.9647C243.469 69.7232 253.71 72.2581 264.388 73.3944V67.6254H245.395V67.538Z" fill="#652C8E"/>
<path d="M270.776 55.1262V73.8316C272.702 73.919 274.627 74.0064 276.553 74.0064C278.478 74.0064 280.404 74.0064 282.33 73.8316V48.7454C278.654 51.1929 274.802 53.2907 270.776 55.1262Z" fill="#652C8E"/>
<path d="M328.016 31.2636C323.64 26.8932 317.863 24.5331 311.736 24.5331C309.723 24.5331 307.71 24.7954 305.785 25.3198C301.146 32.3999 295.369 38.6933 288.893 44.0252V73.3944C292.831 72.9573 296.682 72.4329 300.446 71.6462V47.4341C300.446 41.2281 305.522 36.071 311.824 36.071C318.126 36.071 323.289 41.1407 323.289 47.4341V64.3913C327.228 62.6431 331.167 60.7202 334.843 58.6224V47.4341C334.843 41.3155 332.479 35.634 328.103 31.2636H328.016Z" fill="#652C8E"/>
<path d="M372.217 24.5332H369.416L352.787 38.5185V11.859C352.787 5.47819 347.623 0.321106 341.233 0.321106V54.6016C353.399 46.5601 363.902 36.3333 372.304 24.5332H372.217Z" fill="#652C8E"/>
<path d="M233.842 0.321106V62.381C234.892 62.381 235.942 62.381 236.993 62.381C239.881 62.381 242.682 62.2062 245.395 61.9439V11.859C245.395 5.47819 240.231 0.321106 233.842 0.321106Z" fill="#0D85C8"/>
<path d="M276.553 17.5405C280.229 17.5405 283.205 14.5686 283.205 10.8974C283.205 7.22628 280.229 4.25439 276.553 4.25439C272.877 4.25439 269.901 7.22628 269.901 10.8974C269.901 14.5686 272.877 17.5405 276.553 17.5405Z" fill="#0D85C8"/>
<path d="M270.776 24.5331V55.126C274.802 53.2905 278.654 51.1927 282.33 48.7452V24.5331H270.776Z" fill="#0D85C8"/>
<path d="M300.36 24.5331H288.807V44.0252C295.371 38.6933 301.06 32.3999 305.699 25.3198C303.861 25.8443 302.023 26.5435 300.36 27.505V24.5331Z" fill="#0D85C8"/>
</svg>
